G04 ================== begin FILE IDENTIFICATION RECORD ==================*
G04 Layout Name:  E:/workDir/san1ch/board/sant1ch.brd*
G04 Film Name:    assemblyTop*
G04 File Format:  Gerber RS274X*
G04 File Origin:  Cadence Allegro 16.5-P002*
G04 Origin Date:  Sun Aug 13 10:00:49 2017*
G04 *
G04 Layer:  REF DES/ASSEMBLY_TOP*
G04 Layer:  PACKAGE GEOMETRY/ASSEMBLY_TOP*
G04 Layer:  BOARD GEOMETRY/OUTLINE*
G04 *
G04 Offset:    (0.000 0.000)*
G04 Mirror:    No*
G04 Mode:      Positive*
G04 Rotation:  0*
G04 FullContactRelief:  No*
G04 UndefLineWidth:     6.000*
G04 ================== end FILE IDENTIFICATION RECORD ====================*
%FSLAX35Y35*MOIN*%
%IR0*IPPOS*OFA0.00000B0.00000*MIA0B0*SFA1.00000B1.00000*%
%ADD10C,.005*%
%ADD11C,.005906*%
%ADD12C,.003937*%
%ADD13C,.007087*%
%ADD14C,.009843*%
%ADD15C,.007874*%
%ADD16C,.006*%
G75*
%LPD*%
G75*
G36*
G01X-14330Y-79370D02*
X-18660D01*
Y-75040D01*
X-14330D01*
Y-79370D01*
G37*
G36*
G01X28160Y-37540D02*
Y-41860D01*
X23840D01*
Y-37540D01*
X28160D01*
G37*
G36*
G01X35670Y-79370D02*
X31340D01*
Y-75040D01*
X35670D01*
Y-79370D01*
G37*
G54D10*
G01X35000Y-92200D02*
X-18000D01*
Y-38200D01*
X35000D01*
Y-92200D01*
G54D11*
G01X-135235Y12532D02*
X-153542D01*
Y-20932D01*
X-131888D01*
Y12532D01*
X-135235D01*
G54D12*
G01X-95050Y-10825D02*
Y-13975D01*
X-101350D01*
Y-10825D01*
X-95050D01*
G01X-95250Y-1325D02*
Y-4475D01*
X-101550D01*
Y-1325D01*
X-95250D01*
G01X-94850Y8875D02*
Y5725D01*
X-101150D01*
Y8875D01*
X-94850D01*
G01X-81750Y-59525D02*
Y-62675D01*
X-88050D01*
Y-59525D01*
X-81750D01*
G01X-88250Y-55175D02*
Y-52025D01*
X-81950D01*
Y-55175D01*
X-88250D01*
G01X-88150Y-47975D02*
Y-44825D01*
X-81850D01*
Y-47975D01*
X-88150D01*
G01X-81850Y-37225D02*
Y-40375D01*
X-88150D01*
Y-37225D01*
X-81850D01*
G01X-75475Y-19950D02*
X-72325D01*
Y-26250D01*
X-75475D01*
Y-19950D01*
G01X-67675Y-20050D02*
X-64525D01*
Y-26350D01*
X-67675D01*
Y-20050D01*
G01X-32675Y-71450D02*
X-29525D01*
Y-77750D01*
X-32675D01*
Y-71450D01*
G01X-29525Y-63450D02*
X-32675D01*
Y-57150D01*
X-29525D01*
Y-63450D01*
G01X-26225Y-26950D02*
X-29375D01*
Y-20650D01*
X-26225D01*
Y-26950D01*
G01X-18225D02*
X-21375D01*
Y-20650D01*
X-18225D01*
Y-26950D01*
G01X-13475Y-20550D02*
X-10325D01*
Y-26850D01*
X-13475D01*
Y-20550D01*
G01X-9799Y13850D02*
Y20150D01*
X2799D01*
Y13850D01*
X-9799D01*
G01X-5575Y-20550D02*
X-2425D01*
Y-26850D01*
X-5575D01*
Y-20550D01*
G01X1825D02*
X4975D01*
Y-26850D01*
X1825D01*
Y-20550D01*
G01X9525D02*
X12675D01*
Y-26850D01*
X9525D01*
Y-20550D01*
G01X16725D02*
X19875D01*
Y-26850D01*
X16725D01*
Y-20550D01*
G01X27175Y-26850D02*
X24025D01*
Y-20550D01*
X27175D01*
Y-26850D01*
G54D13*
G01X-128789Y-55511D02*
Y-31889D01*
X-152411D01*
Y-55511D01*
X-128789D01*
G01X-123411Y-32189D02*
Y-55811D01*
X-99789D01*
Y-32189D01*
X-123411D01*
G54D14*
G01X-7045Y1513D02*
G02I-492J0D01*
G54D15*
G01X-143880Y16758D02*
Y56128D01*
X-114352D01*
Y16758D01*
X-143880D01*
G01X-73800Y-82200D02*
X-123800D01*
Y-92200D01*
X-73800D01*
Y-82200D01*
G01X-120435Y-15156D02*
X-112365D01*
Y-9644D01*
X-120435D01*
Y-15156D01*
G01X-120035Y-5656D02*
X-111965D01*
Y-144D01*
X-120035D01*
Y-5656D01*
G01X-111765Y10056D02*
X-119835D01*
Y4544D01*
X-111765D01*
Y10056D01*
G01X-98800Y-87200D02*
Y-92200D01*
G01X-83800Y-82200D02*
Y-92200D01*
G01X-78800Y-82200D02*
X-79851Y-78263D01*
G01X-78800Y-82200D02*
X-80111Y-78263D01*
X-77489D01*
X-78800Y-82200D01*
G01D02*
X-79064Y-78263D01*
G01X-78800Y-82200D02*
X-78276Y-78263D01*
G01X-30800Y-82100D02*
X-70800D01*
Y-92100D01*
X-30800D01*
Y-82100D01*
G01X-50800Y-87100D02*
Y-92100D01*
G01X-40800Y-82100D02*
Y-92100D01*
G01X-35800Y-82100D02*
X-36851Y-78163D01*
G01X-35800Y-82100D02*
X-36064Y-78163D01*
G01X-35800Y-82100D02*
X-35276Y-78163D01*
G01X-35800Y-82100D02*
X-37111Y-78163D01*
X-34489D01*
X-35800Y-82100D01*
G01X-9309Y-259D02*
X2109D01*
Y4859D01*
X-9309D01*
Y-259D01*
G01X142980Y46242D02*
Y-12813D01*
X113452D01*
Y46242D01*
X142980D01*
G54D16*
G01X-153937Y85039D02*
Y-85039D01*
G03X-146063Y-92913I7874J0D01*
G01X146063D01*
G03X153937Y-85039I0J7874D01*
G01Y85039D01*
G03X146063Y92913I-7874J0D01*
G01X-146063D01*
G03X-153937Y85039I0J-7874D01*
G01X-143365Y2083D02*
X-145156D01*
X-145531Y1976D01*
X-145781Y1763D01*
X-145865Y1496D01*
X-145781Y1229D01*
X-145531Y1016D01*
X-145156Y909D01*
X-143365D01*
G01X-145865Y-704D02*
X-143365D01*
X-143865Y-384D01*
G01X-145865D02*
Y-1024D01*
G01X-148348Y22876D02*
X-146556D01*
X-146181Y22983D01*
X-145931Y23196D01*
X-145848Y23463D01*
X-145931Y23730D01*
X-146181Y23943D01*
X-146556Y24050D01*
X-148348D01*
G01X-146348Y25076D02*
X-146056Y25236D01*
X-145890Y25450D01*
X-145848Y25690D01*
X-145890Y25903D01*
X-146098Y26116D01*
X-146348Y26250D01*
X-146598Y26276D01*
X-146890Y26223D01*
X-147098Y26036D01*
X-147181Y25850D01*
Y25610D01*
G01Y25850D02*
X-147306Y26010D01*
X-147515Y26143D01*
X-147765Y26196D01*
X-148015Y26143D01*
X-148223Y26010D01*
X-148348Y25770D01*
X-148306Y25530D01*
X-148140Y25290D01*
G01X-145276Y-77953D02*
G03I6299J0D01*
G01Y77953D02*
G03I6299J0D01*
G01X-143200Y41700D02*
X-127500D01*
X-100100Y69100D01*
Y69400D01*
X-88700Y58000D01*
Y57700D01*
X-114400Y32000D01*
X-143200D01*
Y41700D01*
G01X-130164Y-34398D02*
X-130373Y-34611D01*
X-130498Y-34851D01*
Y-35064D01*
X-130373Y-35278D01*
X-130164Y-35438D01*
X-129873Y-35518D01*
X-129581Y-35464D01*
X-129331Y-35331D01*
X-129164Y-35091D01*
X-129081Y-34771D01*
X-128914Y-34584D01*
X-128623Y-34504D01*
X-128331Y-34558D01*
X-128123Y-34691D01*
X-127998Y-34878D01*
Y-35064D01*
X-128081Y-35251D01*
X-128289Y-35411D01*
G01X-127998Y-36358D02*
X-130498Y-36731D01*
X-127998Y-37158D01*
X-130498Y-37584D01*
X-127998Y-37958D01*
G01X-128414Y-38851D02*
X-128164Y-39011D01*
X-128039Y-39198D01*
X-127998Y-39411D01*
X-128081Y-39678D01*
X-128289Y-39864D01*
X-128539Y-39918D01*
X-128789Y-39891D01*
X-128998Y-39784D01*
X-129414Y-39251D01*
X-129706Y-39011D01*
X-130123Y-38851D01*
X-130498Y-38798D01*
Y-39918D01*
G01X-122036Y-53302D02*
X-121827Y-53089D01*
X-121702Y-52849D01*
Y-52636D01*
X-121827Y-52423D01*
X-122036Y-52262D01*
X-122327Y-52183D01*
X-122619Y-52236D01*
X-122869Y-52369D01*
X-123036Y-52609D01*
X-123119Y-52929D01*
X-123286Y-53116D01*
X-123577Y-53196D01*
X-123869Y-53142D01*
X-124077Y-53009D01*
X-124202Y-52823D01*
Y-52636D01*
X-124119Y-52449D01*
X-123911Y-52289D01*
G01X-124202Y-51342D02*
X-121702Y-50969D01*
X-124202Y-50542D01*
X-121702Y-50116D01*
X-124202Y-49742D01*
G01X-121702Y-48343D02*
X-124202D01*
X-123702Y-48662D01*
G01X-121702D02*
Y-48022D01*
G01X-117424Y-13187D02*
Y-11613D01*
X-117030D01*
X-116872Y-11691D01*
X-116754Y-11796D01*
X-116656Y-11954D01*
X-116577Y-12138D01*
X-116558Y-12400D01*
X-116577Y-12663D01*
X-116656Y-12846D01*
X-116754Y-13004D01*
X-116872Y-13109D01*
X-117030Y-13187D01*
X-117424D01*
G01X-115573D02*
Y-11613D01*
X-116302Y-12741D01*
X-115317D01*
G01X-117024Y-3687D02*
Y-2113D01*
X-116630D01*
X-116472Y-2191D01*
X-116354Y-2296D01*
X-116256Y-2454D01*
X-116177Y-2638D01*
X-116158Y-2900D01*
X-116177Y-3162D01*
X-116256Y-3346D01*
X-116354Y-3504D01*
X-116472Y-3609D01*
X-116630Y-3687D01*
X-117024D01*
G01X-115842Y-3373D02*
X-115724Y-3556D01*
X-115567Y-3661D01*
X-115390Y-3687D01*
X-115232Y-3661D01*
X-115075Y-3530D01*
X-114976Y-3373D01*
X-114957Y-3215D01*
X-114996Y-3031D01*
X-115134Y-2900D01*
X-115272Y-2848D01*
X-115449D01*
G01X-115272D02*
X-115154Y-2769D01*
X-115055Y-2638D01*
X-115016Y-2480D01*
X-115055Y-2323D01*
X-115154Y-2191D01*
X-115331Y-2113D01*
X-115508Y-2139D01*
X-115685Y-2244D01*
G01X-114776Y8087D02*
Y6513D01*
X-115170D01*
X-115328Y6591D01*
X-115446Y6696D01*
X-115544Y6854D01*
X-115623Y7038D01*
X-115642Y7300D01*
X-115623Y7562D01*
X-115544Y7746D01*
X-115446Y7904D01*
X-115328Y8009D01*
X-115170Y8087D01*
X-114776D01*
G01X-116390D02*
Y6513D01*
X-116154Y6828D01*
G01Y8087D02*
X-116627D01*
G01X-95467Y-11219D02*
Y-13719D01*
X-96133D01*
X-96347Y-13594D01*
X-96480Y-13427D01*
X-96533Y-13094D01*
X-96480Y-12760D01*
X-96320Y-12552D01*
X-96133Y-12427D01*
X-95467D01*
G01X-96133D02*
X-96533Y-11219D01*
G01X-98200D02*
Y-13719D01*
X-97880Y-13219D01*
G01Y-11219D02*
X-98520D01*
G01X-99893Y-13302D02*
X-100053Y-13552D01*
X-100240Y-13677D01*
X-100453Y-13719D01*
X-100720Y-13636D01*
X-100907Y-13427D01*
X-100960Y-13177D01*
X-100933Y-12927D01*
X-100827Y-12719D01*
X-100293Y-12302D01*
X-100053Y-12011D01*
X-99893Y-11594D01*
X-99840Y-11219D01*
X-100960D01*
G01X-96767Y-1719D02*
Y-4219D01*
X-97433D01*
X-97647Y-4094D01*
X-97780Y-3927D01*
X-97833Y-3594D01*
X-97780Y-3260D01*
X-97620Y-3052D01*
X-97433Y-2927D01*
X-96767D01*
G01X-97433D02*
X-97833Y-1719D01*
G01X-98993Y-2760D02*
X-99180Y-3052D01*
X-99340Y-3219D01*
X-99553Y-3302D01*
X-99740Y-3219D01*
X-99873Y-3052D01*
X-99980Y-2802D01*
X-100007Y-2511D01*
X-99980Y-2260D01*
X-99873Y-2011D01*
X-99713Y-1802D01*
X-99527Y-1719D01*
X-99313Y-1802D01*
X-99127Y-2052D01*
X-99020Y-2427D01*
X-98993Y-2844D01*
X-99047Y-3385D01*
X-99127Y-3677D01*
X-99260Y-3969D01*
X-99447Y-4177D01*
X-99633Y-4219D01*
X-99820Y-4136D01*
X-99953Y-3927D01*
G01X-96367Y8481D02*
Y5981D01*
X-97033D01*
X-97247Y6106D01*
X-97380Y6273D01*
X-97433Y6606D01*
X-97380Y6940D01*
X-97220Y7148D01*
X-97033Y7273D01*
X-96367D01*
G01X-97033D02*
X-97433Y8481D01*
G01X-98513Y7981D02*
X-98673Y8273D01*
X-98887Y8439D01*
X-99127Y8481D01*
X-99340Y8439D01*
X-99553Y8231D01*
X-99687Y7981D01*
X-99713Y7731D01*
X-99660Y7440D01*
X-99473Y7231D01*
X-99287Y7148D01*
X-99047D01*
G01X-99287D02*
X-99447Y7023D01*
X-99580Y6814D01*
X-99633Y6564D01*
X-99580Y6314D01*
X-99447Y6106D01*
X-99207Y5981D01*
X-98967Y6023D01*
X-98727Y6190D01*
G01X-87833Y-54781D02*
Y-52281D01*
X-87167D01*
X-86953Y-52406D01*
X-86820Y-52573D01*
X-86767Y-52906D01*
X-86820Y-53239D01*
X-86980Y-53448D01*
X-87167Y-53573D01*
X-87833D01*
G01X-87167D02*
X-86767Y-54781D01*
G01X-85100D02*
Y-52281D01*
X-85420Y-52781D01*
G01Y-54781D02*
X-84780D01*
G01X-82900Y-52281D02*
X-83113Y-52364D01*
X-83273Y-52573D01*
X-83380Y-52823D01*
X-83460Y-53156D01*
X-83487Y-53531D01*
X-83460Y-53906D01*
X-83380Y-54239D01*
X-83273Y-54490D01*
X-83113Y-54698D01*
X-82900Y-54781D01*
X-82687Y-54698D01*
X-82527Y-54490D01*
X-82420Y-54239D01*
X-82340Y-53906D01*
X-82313Y-53531D01*
X-82340Y-53156D01*
X-82420Y-52823D01*
X-82527Y-52573D01*
X-82687Y-52364D01*
X-82900Y-52281D01*
G01X-83267Y-59919D02*
Y-62419D01*
X-83933D01*
X-84147Y-62294D01*
X-84280Y-62127D01*
X-84333Y-61794D01*
X-84280Y-61461D01*
X-84120Y-61252D01*
X-83933Y-61127D01*
X-83267D01*
G01X-83933D02*
X-84333Y-59919D01*
G01X-86000D02*
X-86187Y-59961D01*
X-86400Y-60086D01*
X-86533Y-60294D01*
X-86587Y-60586D01*
X-86533Y-60877D01*
X-86373Y-61127D01*
X-86133Y-61252D01*
X-85867D01*
X-85707Y-61336D01*
X-85573Y-61544D01*
X-85520Y-61836D01*
X-85600Y-62127D01*
X-85787Y-62336D01*
X-86000Y-62419D01*
X-86213Y-62336D01*
X-86400Y-62127D01*
X-86480Y-61836D01*
X-86427Y-61544D01*
X-86293Y-61336D01*
X-86133Y-61252D01*
X-85867D01*
X-85627Y-61127D01*
X-85467Y-60877D01*
X-85413Y-60586D01*
X-85467Y-60294D01*
X-85600Y-60086D01*
X-85813Y-59961D01*
X-86000Y-59919D01*
G01X-86633Y-47581D02*
Y-45081D01*
X-85967D01*
X-85753Y-45206D01*
X-85620Y-45373D01*
X-85567Y-45706D01*
X-85620Y-46040D01*
X-85780Y-46248D01*
X-85967Y-46373D01*
X-86633D01*
G01X-85967D02*
X-85567Y-47581D01*
G01X-83953D02*
X-83900Y-47040D01*
X-83820Y-46581D01*
X-83713Y-46164D01*
X-83580Y-45706D01*
X-83367Y-45081D01*
X-84433D01*
G01X-84487Y-39911D02*
X-84327Y-40036D01*
X-84140Y-40119D01*
X-83927D01*
X-83687Y-39994D01*
X-83500Y-39786D01*
X-83367Y-39536D01*
X-83260Y-39119D01*
X-83233Y-38744D01*
X-83287Y-38369D01*
X-83367Y-38119D01*
X-83527Y-37869D01*
X-83713Y-37702D01*
X-83900Y-37619D01*
X-84087D01*
X-84273Y-37702D01*
X-84433Y-37827D01*
X-84567Y-37994D01*
G01X-86047Y-37619D02*
X-86100Y-38160D01*
X-86180Y-38619D01*
X-86287Y-39036D01*
X-86420Y-39494D01*
X-86633Y-40119D01*
X-85567D01*
G01X-14073Y-10428D02*
X-85727D01*
Y86028D01*
X-14073D01*
Y-10428D01*
G01X-77186Y-87987D02*
Y-86859D01*
X-77264Y-86622D01*
X-77422Y-86465D01*
X-77619Y-86413D01*
X-77816Y-86465D01*
X-77973Y-86622D01*
X-78052Y-86859D01*
Y-87987D01*
G01X-78800Y-86413D02*
Y-87987D01*
X-78564Y-87673D01*
G01Y-86413D02*
X-79036D01*
G01X-79981D02*
Y-87987D01*
X-79745Y-87673D01*
G01Y-86413D02*
X-80217D01*
G01X-72790Y-22587D02*
X-72664Y-22427D01*
X-72581Y-22240D01*
Y-22027D01*
X-72706Y-21787D01*
X-72914Y-21600D01*
X-73164Y-21467D01*
X-73581Y-21360D01*
X-73956Y-21333D01*
X-74331Y-21387D01*
X-74581Y-21467D01*
X-74831Y-21627D01*
X-74998Y-21813D01*
X-75081Y-22000D01*
Y-22187D01*
X-74998Y-22373D01*
X-74873Y-22533D01*
X-74706Y-22667D01*
G01X-72998Y-23693D02*
X-72748Y-23853D01*
X-72623Y-24040D01*
X-72581Y-24253D01*
X-72664Y-24520D01*
X-72873Y-24707D01*
X-73123Y-24760D01*
X-73373Y-24733D01*
X-73581Y-24627D01*
X-73998Y-24093D01*
X-74289Y-23853D01*
X-74706Y-23693D01*
X-75081Y-23640D01*
Y-24760D01*
G01X-64990Y-22687D02*
X-64864Y-22527D01*
X-64781Y-22340D01*
Y-22127D01*
X-64906Y-21887D01*
X-65114Y-21700D01*
X-65364Y-21567D01*
X-65781Y-21460D01*
X-66156Y-21433D01*
X-66531Y-21487D01*
X-66781Y-21567D01*
X-67031Y-21727D01*
X-67198Y-21913D01*
X-67281Y-22100D01*
Y-22287D01*
X-67198Y-22473D01*
X-67073Y-22633D01*
X-66906Y-22767D01*
G01X-67281Y-24300D02*
X-64781D01*
X-65281Y-23980D01*
G01X-67281D02*
Y-24620D01*
G01X-65865Y-42205D02*
X-51298D01*
Y-65236D01*
X-65865D01*
Y-42205D01*
G01X-61087Y-52300D02*
Y-54092D01*
X-60980Y-54467D01*
X-60767Y-54717D01*
X-60501Y-54800D01*
X-60234Y-54717D01*
X-60021Y-54467D01*
X-59915Y-54092D01*
Y-52300D01*
G01X-58357Y-54800D02*
X-58304Y-54258D01*
X-58224Y-53800D01*
X-58118Y-53383D01*
X-57984Y-52925D01*
X-57771Y-52300D01*
X-58837D01*
G01X-41345Y-19582D02*
Y-29818D01*
X-59455D01*
Y-19582D01*
X-41345D01*
G01X-51000Y23913D02*
X-49208D01*
X-48833Y24020D01*
X-48583Y24233D01*
X-48500Y24500D01*
X-48583Y24767D01*
X-48833Y24980D01*
X-49208Y25087D01*
X-51000D01*
G01X-48500Y27020D02*
X-51000D01*
X-49208Y26033D01*
Y27367D01*
G01X-46213Y-39300D02*
Y-37508D01*
X-46320Y-37133D01*
X-46533Y-36883D01*
X-46800Y-36800D01*
X-47067Y-36883D01*
X-47280Y-37133D01*
X-47387Y-37508D01*
Y-39300D01*
G01X-48493Y-37842D02*
X-48680Y-38133D01*
X-48840Y-38300D01*
X-49053Y-38383D01*
X-49240Y-38300D01*
X-49373Y-38133D01*
X-49480Y-37883D01*
X-49507Y-37592D01*
X-49480Y-37342D01*
X-49373Y-37092D01*
X-49213Y-36883D01*
X-49027Y-36800D01*
X-48813Y-36883D01*
X-48627Y-37133D01*
X-48520Y-37508D01*
X-48493Y-37925D01*
X-48547Y-38467D01*
X-48627Y-38758D01*
X-48760Y-39050D01*
X-48947Y-39258D01*
X-49133Y-39300D01*
X-49320Y-39217D01*
X-49453Y-39008D01*
G01X-34776Y-87887D02*
Y-86759D01*
X-34855Y-86522D01*
X-35013Y-86365D01*
X-35209Y-86313D01*
X-35406Y-86365D01*
X-35564Y-86522D01*
X-35642Y-86759D01*
Y-87887D01*
G01X-36016Y-87625D02*
X-36135Y-87782D01*
X-36272Y-87861D01*
X-36430Y-87887D01*
X-36627Y-87835D01*
X-36765Y-87704D01*
X-36804Y-87546D01*
X-36784Y-87389D01*
X-36706Y-87258D01*
X-36312Y-86995D01*
X-36135Y-86811D01*
X-36016Y-86549D01*
X-35977Y-86313D01*
X-36804D01*
G01X-32281Y-72967D02*
X-29781D01*
Y-73633D01*
X-29906Y-73847D01*
X-30073Y-73980D01*
X-30406Y-74033D01*
X-30739Y-73980D01*
X-30948Y-73820D01*
X-31073Y-73633D01*
Y-72967D01*
G01Y-73633D02*
X-32281Y-74033D01*
G01Y-75700D02*
X-29781D01*
X-30281Y-75380D01*
G01X-32281D02*
Y-76020D01*
G01X-32211Y-60813D02*
X-32336Y-60973D01*
X-32419Y-61160D01*
Y-61373D01*
X-32294Y-61613D01*
X-32086Y-61800D01*
X-31836Y-61933D01*
X-31419Y-62040D01*
X-31044Y-62067D01*
X-30669Y-62013D01*
X-30419Y-61933D01*
X-30169Y-61773D01*
X-30002Y-61587D01*
X-29919Y-61400D01*
Y-61213D01*
X-30002Y-61027D01*
X-30127Y-60867D01*
X-30294Y-60733D01*
G01X-29919Y-58880D02*
X-32419D01*
X-30627Y-59867D01*
Y-58533D01*
G01X-28910Y-24313D02*
X-29036Y-24473D01*
X-29119Y-24660D01*
Y-24873D01*
X-28994Y-25113D01*
X-28786Y-25300D01*
X-28536Y-25433D01*
X-28119Y-25540D01*
X-27744Y-25567D01*
X-27369Y-25513D01*
X-27119Y-25433D01*
X-26869Y-25273D01*
X-26702Y-25087D01*
X-26619Y-24900D01*
Y-24713D01*
X-26702Y-24527D01*
X-26827Y-24367D01*
X-26994Y-24233D01*
G01X-27119Y-23287D02*
X-26827Y-23127D01*
X-26661Y-22913D01*
X-26619Y-22673D01*
X-26661Y-22460D01*
X-26869Y-22247D01*
X-27119Y-22113D01*
X-27369Y-22087D01*
X-27661Y-22140D01*
X-27869Y-22327D01*
X-27952Y-22513D01*
Y-22753D01*
G01Y-22513D02*
X-28077Y-22353D01*
X-28286Y-22220D01*
X-28536Y-22167D01*
X-28786Y-22220D01*
X-28994Y-22353D01*
X-29119Y-22593D01*
X-29077Y-22833D01*
X-28910Y-23073D01*
G01X-20910Y-24313D02*
X-21036Y-24473D01*
X-21119Y-24660D01*
Y-24873D01*
X-20994Y-25113D01*
X-20786Y-25300D01*
X-20536Y-25433D01*
X-20119Y-25540D01*
X-19744Y-25567D01*
X-19369Y-25513D01*
X-19119Y-25433D01*
X-18869Y-25273D01*
X-18702Y-25087D01*
X-18619Y-24900D01*
Y-24713D01*
X-18702Y-24527D01*
X-18827Y-24367D01*
X-18994Y-24233D01*
G01X-19660Y-23207D02*
X-19952Y-23020D01*
X-20119Y-22860D01*
X-20202Y-22647D01*
X-20119Y-22460D01*
X-19952Y-22327D01*
X-19702Y-22220D01*
X-19411Y-22193D01*
X-19160Y-22220D01*
X-18910Y-22327D01*
X-18702Y-22487D01*
X-18619Y-22673D01*
X-18702Y-22887D01*
X-18952Y-23073D01*
X-19327Y-23180D01*
X-19744Y-23207D01*
X-20286Y-23153D01*
X-20577Y-23073D01*
X-20869Y-22940D01*
X-21077Y-22753D01*
X-21119Y-22567D01*
X-21036Y-22380D01*
X-20827Y-22247D01*
G01X-14340Y-72200D02*
G03I-2160J0D01*
G01Y-67200D02*
G03I-2160J0D01*
G01Y-62200D02*
G03I-2160J0D01*
G01Y-57200D02*
G03I-2160J0D01*
G01Y-52200D02*
G03I-2160J0D01*
G01Y-47200D02*
G03I-2160J0D01*
G01Y-42200D02*
G03I-2160J0D01*
G01X-13081Y-20967D02*
X-10581D01*
Y-21633D01*
X-10706Y-21847D01*
X-10873Y-21980D01*
X-11206Y-22033D01*
X-11540Y-21980D01*
X-11748Y-21820D01*
X-11873Y-21633D01*
Y-20967D01*
G01Y-21633D02*
X-13081Y-22033D01*
G01Y-23700D02*
X-10581D01*
X-11081Y-23380D01*
G01X-13081D02*
Y-24020D01*
G01Y-25900D02*
X-10581D01*
X-11081Y-25580D01*
G01X-13081D02*
Y-26220D01*
G01X-6840Y-39700D02*
G03I-2160J0D01*
G01X-7874Y-92913D02*
Y-80709D01*
X44882D01*
Y-92913D01*
X-7874D01*
G01X-1840Y-39700D02*
G03I-2160J0D01*
G01X-5181Y-22067D02*
X-2681D01*
Y-22733D01*
X-2806Y-22947D01*
X-2973Y-23080D01*
X-3306Y-23133D01*
X-3640Y-23080D01*
X-3848Y-22920D01*
X-3973Y-22733D01*
Y-22067D01*
G01Y-22733D02*
X-5181Y-23133D01*
G01X-4890Y-24347D02*
X-5098Y-24533D01*
X-5181Y-24747D01*
X-5098Y-24960D01*
X-4848Y-25147D01*
X-4473Y-25280D01*
X-4098Y-25333D01*
X-3640D01*
X-3264Y-25280D01*
X-2931Y-25147D01*
X-2764Y-24987D01*
X-2681Y-24800D01*
X-2764Y-24587D01*
X-2931Y-24427D01*
X-3181Y-24320D01*
X-3515Y-24267D01*
X-3806Y-24320D01*
X-4098Y-24453D01*
X-4264Y-24613D01*
X-4306Y-24800D01*
X-4223Y-25013D01*
X-4015Y-25173D01*
X-3640Y-25333D01*
G01X-5214Y3087D02*
Y1959D01*
X-5136Y1722D01*
X-4978Y1565D01*
X-4781Y1513D01*
X-4584Y1565D01*
X-4427Y1722D01*
X-4348Y1959D01*
Y3087D01*
G01X-3600Y1513D02*
Y3087D01*
X-3836Y2773D01*
G01Y1513D02*
X-3364D01*
G01X-2419Y3087D02*
X-2576Y3035D01*
X-2694Y2904D01*
X-2773Y2746D01*
X-2832Y2536D01*
X-2852Y2300D01*
X-2832Y2064D01*
X-2773Y1854D01*
X-2694Y1696D01*
X-2576Y1565D01*
X-2419Y1513D01*
X-2262Y1565D01*
X-2143Y1696D01*
X-2065Y1854D01*
X-2006Y2064D01*
X-1986Y2300D01*
X-2006Y2536D01*
X-2065Y2746D01*
X-2143Y2904D01*
X-2262Y3035D01*
X-2419Y3087D01*
G01X-5893Y19362D02*
Y22462D01*
X-5127D01*
X-4820Y22307D01*
X-4590Y22100D01*
X-4398Y21791D01*
X-4245Y21429D01*
X-4207Y20912D01*
X-4245Y20396D01*
X-4398Y20034D01*
X-4590Y19724D01*
X-4820Y19517D01*
X-5127Y19362D01*
X-5893D01*
G01X-2678Y21946D02*
X-2448Y22256D01*
X-2180Y22410D01*
X-1873Y22462D01*
X-1490Y22359D01*
X-1222Y22100D01*
X-1145Y21791D01*
X-1183Y21481D01*
X-1337Y21222D01*
X-2103Y20706D01*
X-2448Y20344D01*
X-2678Y19827D01*
X-2755Y19362D01*
X-1145D01*
G01X3160Y-39700D02*
G03I-2160J0D01*
G01X2219Y-22067D02*
X4719D01*
Y-22733D01*
X4594Y-22947D01*
X4427Y-23080D01*
X4094Y-23133D01*
X3760Y-23080D01*
X3552Y-22920D01*
X3427Y-22733D01*
Y-22067D01*
G01Y-22733D02*
X2219Y-23133D01*
G01X2594Y-24213D02*
X2386Y-24373D01*
X2261Y-24560D01*
X2219Y-24800D01*
X2302Y-25040D01*
X2469Y-25227D01*
X2760Y-25360D01*
X3094Y-25387D01*
X3427Y-25333D01*
X3636Y-25200D01*
X3802Y-25013D01*
X3844Y-24827D01*
X3802Y-24640D01*
X3636Y-24400D01*
X4719Y-24480D01*
Y-25200D01*
G01X4000Y-68193D02*
X7583D01*
X8334Y-67940D01*
X8833Y-67433D01*
X9000Y-66800D01*
X8833Y-66167D01*
X8334Y-65660D01*
X7583Y-65407D01*
X4000D01*
G01X8250Y-63093D02*
X8667Y-62713D01*
X8917Y-62270D01*
X9000Y-61700D01*
X8833Y-61130D01*
X8500Y-60687D01*
X7917Y-60370D01*
X7250Y-60307D01*
X6583Y-60433D01*
X6167Y-60750D01*
X5833Y-61193D01*
X5750Y-61637D01*
X5833Y-62080D01*
X6167Y-62650D01*
X4000Y-62460D01*
Y-60750D01*
G01X8160Y-39700D02*
G03I-2160J0D01*
G01X32500Y35500D02*
X8700D01*
X7400Y34200D01*
Y-800D01*
X8400Y-1800D01*
X32200D01*
X32300Y-1700D01*
Y11800D01*
X15000D01*
Y21600D01*
X32100D01*
X32500Y22000D01*
Y35500D01*
G01X13160Y-39700D02*
G03I-2160J0D01*
G01X12210Y-23187D02*
X12336Y-23027D01*
X12419Y-22840D01*
Y-22627D01*
X12294Y-22387D01*
X12086Y-22200D01*
X11836Y-22067D01*
X11419Y-21960D01*
X11044Y-21933D01*
X10669Y-21987D01*
X10419Y-22067D01*
X10169Y-22227D01*
X10002Y-22413D01*
X9919Y-22600D01*
Y-22787D01*
X10002Y-22973D01*
X10127Y-23133D01*
X10294Y-23267D01*
G01Y-24213D02*
X10086Y-24373D01*
X9961Y-24560D01*
X9919Y-24800D01*
X10002Y-25040D01*
X10169Y-25227D01*
X10460Y-25360D01*
X10794Y-25387D01*
X11127Y-25333D01*
X11336Y-25200D01*
X11502Y-25013D01*
X11544Y-24827D01*
X11502Y-24640D01*
X11336Y-24400D01*
X12419Y-24480D01*
Y-25200D01*
G01X18160Y-39700D02*
G03I-2160J0D01*
G01X89303Y48092D02*
Y-14900D01*
X14500D01*
Y48092D01*
X89303D01*
G01X17119Y-22067D02*
X19619D01*
Y-22733D01*
X19494Y-22947D01*
X19327Y-23080D01*
X18994Y-23133D01*
X18660Y-23080D01*
X18452Y-22920D01*
X18327Y-22733D01*
Y-22067D01*
G01Y-22733D02*
X17119Y-23133D01*
G01X19202Y-24293D02*
X19452Y-24453D01*
X19577Y-24640D01*
X19619Y-24853D01*
X19536Y-25120D01*
X19327Y-25307D01*
X19077Y-25360D01*
X18827Y-25333D01*
X18619Y-25227D01*
X18202Y-24693D01*
X17911Y-24453D01*
X17494Y-24293D01*
X17119Y-24240D01*
Y-25360D01*
G01X23160Y-39700D02*
G03I-2160J0D01*
G01X26781Y-25333D02*
X24281D01*
Y-24667D01*
X24406Y-24453D01*
X24573Y-24320D01*
X24906Y-24267D01*
X25240Y-24320D01*
X25448Y-24480D01*
X25573Y-24667D01*
Y-25333D01*
G01Y-24667D02*
X26781Y-24267D01*
G01Y-22280D02*
X24281D01*
X26073Y-23267D01*
Y-21933D01*
G01X35660Y-72200D02*
G03I-2160J0D01*
G01Y-67200D02*
G03I-2160J0D01*
G01Y-62200D02*
G03I-2160J0D01*
G01Y-57200D02*
G03I-2160J0D01*
G01Y-52200D02*
G03I-2160J0D01*
G01Y-47200D02*
G03I-2160J0D01*
G01Y-42200D02*
G03I-2160J0D01*
G01X48178Y19096D02*
Y17304D01*
X48285Y16929D01*
X48498Y16679D01*
X48765Y16596D01*
X49031Y16679D01*
X49245Y16929D01*
X49351Y17304D01*
Y19096D01*
G01X50965Y16596D02*
X51151Y16638D01*
X51365Y16763D01*
X51498Y16971D01*
X51551Y17263D01*
X51498Y17554D01*
X51338Y17804D01*
X51098Y17930D01*
X50831D01*
X50671Y18013D01*
X50538Y18221D01*
X50485Y18513D01*
X50565Y18804D01*
X50751Y19013D01*
X50965Y19096D01*
X51178Y19013D01*
X51365Y18804D01*
X51445Y18513D01*
X51391Y18221D01*
X51258Y18013D01*
X51098Y17930D01*
X50831D01*
X50591Y17804D01*
X50431Y17554D01*
X50378Y17263D01*
X50431Y16971D01*
X50565Y16763D01*
X50778Y16638D01*
X50965Y16596D01*
G01X58098Y-72323D02*
Y-33740D01*
X116365D01*
Y-72323D01*
X58098D01*
G01X81613Y-51100D02*
Y-52892D01*
X81720Y-53267D01*
X81933Y-53517D01*
X82199Y-53600D01*
X82466Y-53517D01*
X82679Y-53267D01*
X82785Y-52892D01*
Y-51100D01*
G01X84396Y-53600D02*
Y-51100D01*
X84076Y-51600D01*
G01Y-53600D02*
X84716D01*
G01X86087Y-51517D02*
X86246Y-51267D01*
X86433Y-51142D01*
X86646Y-51100D01*
X86912Y-51183D01*
X87099Y-51392D01*
X87152Y-51642D01*
X87126Y-51892D01*
X87019Y-52100D01*
X86486Y-52517D01*
X86246Y-52808D01*
X86087Y-53225D01*
X86033Y-53600D01*
X87152D01*
G01X90900Y1500D02*
Y12400D01*
X133200D01*
Y1500D01*
X90900D01*
G01X91200Y21000D02*
Y32200D01*
X133100D01*
Y21000D01*
X91200D01*
G01X145276Y-77953D02*
G03I-6299J0D01*
G01Y77953D02*
G03I-6299J-1654D01*
G01X147448Y40124D02*
X145656D01*
X145281Y40017D01*
X145031Y39804D01*
X144948Y39537D01*
X145031Y39270D01*
X145281Y39057D01*
X145656Y38950D01*
X147448D01*
G01X145240Y37790D02*
X145031Y37604D01*
X144948Y37390D01*
X145031Y37177D01*
X145281Y36990D01*
X145656Y36857D01*
X146031Y36804D01*
X146490D01*
X146865Y36857D01*
X147198Y36990D01*
X147365Y37150D01*
X147448Y37337D01*
X147365Y37550D01*
X147198Y37710D01*
X146948Y37817D01*
X146615Y37870D01*
X146323Y37817D01*
X146031Y37684D01*
X145865Y37524D01*
X145823Y37337D01*
X145906Y37124D01*
X146115Y36964D01*
X146490Y36804D01*
M02*
