G04 ================== begin FILE IDENTIFICATION RECORD ==================*
G04 Layout Name:  E:/workDir/san1ch/board/sant1ch.brd*
G04 Film Name:    BOTTOM*
G04 File Format:  Gerber RS274X*
G04 File Origin:  Cadence Allegro 16.5-P002*
G04 Origin Date:  Sun Aug 13 10:00:49 2017*
G04 *
G04 Layer:  VIA CLASS/BOTTOM*
G04 Layer:  PIN/BOTTOM*
G04 Layer:  ETCH/BOTTOM*
G04 Layer:  BOARD GEOMETRY/OUTLINE*
G04 *
G04 Offset:    (0.000 0.000)*
G04 Mirror:    No*
G04 Mode:      Positive*
G04 Rotation:  0*
G04 FullContactRelief:  No*
G04 UndefLineWidth:     0.000*
G04 ================== end FILE IDENTIFICATION RECORD ====================*
%FSLAX35Y35*MOIN*%
%IR0*IPPOS*OFA0.00000B0.00000*MIA0B0*SFA1.00000B1.00000*%
%ADD12C,.023622*%
%ADD10O,.059055X.043307*%
%ADD14C,.07874*%
%ADD17C,.084646*%
%ADD11C,.019685*%
%ADD15C,.066929*%
%ADD13R,.07874X.07874*%
%ADD16R,.066929X.066929*%
%ADD18C,.02*%
%ADD19C,.04*%
%ADD20C,.08*%
%ADD21C,.092934*%
G75*
%LPD*%
G75*
G36*
G01X-146800Y-92000D02*
X-153600Y-85200D01*
Y-21900D01*
X-152553Y-20853D01*
X-152412Y-20989D01*
G03X-149802Y-22040I2610J2714D01*
G01X-148227D01*
G03X-144527Y-17574I0J3766D01*
G02X-144134Y-17100I393J74D01*
G01X-140312D01*
G02X-139919Y-17574I0J-400D01*
G03X-136219Y-22040I3700J-700D01*
G01X-134644D01*
G03X-131262Y-19929I0J3766D01*
G02X-130512Y-20016I359J-176D01*
G03X-125680Y-21200I2712J616D01*
G01X-122746D01*
X-95946Y-48000D01*
X-90320D01*
G03Y-44400I2120J1800D01*
G01X-94454D01*
X-121254Y-17600D01*
X-125680D01*
G03X-125826Y-17441I-2120J-1800D01*
G02X-125684Y-17100I142J141D01*
G01X-62100D01*
Y-44615D01*
G02X-62638Y-44990I-400J0D01*
G03X-63461Y-50378I-962J-2610D01*
G01X-63372Y-50373D01*
X-59746Y-54000D01*
X-30600D01*
Y-58600D01*
X-53680D01*
G03X-58480Y-61143I-2120J-1800D01*
G02X-58866Y-61649I-385J-107D01*
G01X-61886D01*
G03X-63683Y-65259I-2614J-951D01*
G01X-63654Y-65250D01*
X-48861D01*
G02X-48578Y-65933I0J-400D01*
G01X-53900Y-71254D01*
Y-81546D01*
X-53632Y-81814D01*
G02X-54056Y-82471I-283J-283D01*
G03X-58471Y-91263I-1744J-4629D01*
G02X-58687Y-92000I-216J-337D01*
G01X-63516D01*
G02X-63696Y-91243I0J400D01*
G03X-67904I-2104J4143D01*
G02X-68084Y-92000I-181J-357D01*
G01X-73853D01*
Y-82253D01*
X-83747D01*
Y-84567D01*
G02X-84495Y-84764I-400J0D01*
G03X-90544Y-82571I-4305J-2436D01*
G02X-90968Y-81914I-141J374D01*
G01X-74500Y-65446D01*
Y-62320D01*
G03X-75677Y-57489I-1800J2120D01*
G02X-75871Y-56817I90J390D01*
G01X-73700Y-54646D01*
Y-51220D01*
G03X-77300I-1800J2120D01*
G01Y-53154D01*
X-78525Y-54379D01*
G02X-79203Y-54034I-283J283D01*
G03X-84070Y-51800I-2747J434D01*
G01X-96154D01*
X-113127Y-34828D01*
X-113122Y-34739D01*
G03X-115761Y-37378I-2778J139D01*
G01X-115672Y-37373D01*
X-97646Y-55400D01*
X-84070D01*
G03X-81516Y-56347I2120J1800D01*
G02X-81171Y-57025I62J-395D01*
G01X-106814Y-82668D01*
X-106937Y-82618D01*
G03X-111610Y-91271I-1864J-4582D01*
G02X-111838Y-92000I-227J-329D01*
G01X-116328D01*
G02X-116524Y-91251I0J400D01*
G03X-121076I-2276J4051D01*
G02X-121272Y-92000I-196J-349D01*
G01X-146800D01*
G37*
G36*
G01X49400Y-63800D02*
Y-22351D01*
X50505D01*
X59841Y-31687D01*
Y-33321D01*
X56694D01*
Y-43214D01*
X59008D01*
G02X59205Y-43962I0J-400D01*
G03X64077I2436J-4305D01*
G02X64274Y-43214I197J348D01*
G01X66588D01*
Y-33321D01*
X63441D01*
Y-30195D01*
X51996Y-18750D01*
X20420D01*
G03X16536Y-18400I-2120J-1800D01*
G01X-18546D01*
X-21600Y-21454D01*
Y-21800D01*
X-22500D01*
X-30600Y-29900D01*
Y-39200D01*
X-39380D01*
G03X-43724Y-42670I-2120J-1800D01*
G02X-43747Y-42936I-160J-120D01*
G03X-44589Y-45381I1907J-2024D01*
G02X-44984Y-45842I-395J-60D01*
G01X-56913D01*
X-58500Y-44254D01*
Y-17100D01*
X60800D01*
X78600Y-34900D01*
Y-63800D01*
X63764D01*
G03X59517I-2124J-4468D01*
G01X49400D01*
G37*
%LPC*%
G75*
G36*
G01X-61020Y-75500D02*
X-72780D01*
G02Y-71900I-2120J1800D01*
G01X-61020D01*
G02Y-75500I2120J-1800D01*
G37*
G54D21*
X61641Y-58268D03*
%LPD*%
G75*
G54D10*
X-149014Y-18275D03*
Y9875D03*
X-135432Y-18275D03*
Y9875D03*
G54D20*
G01X-18404Y57800D02*
X-26250D01*
X-26350Y57700D01*
X-81400D01*
X-112500Y26600D01*
X-130100D01*
G01X-18404Y77800D02*
X-97900D01*
X-98000Y77900D01*
X-98485D01*
X-130100Y46285D01*
G01X20406Y16596D02*
X120644D01*
X120763Y16715D01*
X129200D01*
G01Y-2970D02*
X120763D01*
X120733Y-3000D01*
X91900D01*
X87874Y-7026D01*
X76311D01*
G01X129200Y36400D02*
X92700D01*
X88882Y40218D01*
X76311D01*
G54D11*
X-140648Y-12074D03*
Y3674D03*
G54D12*
X-134200Y-12500D03*
X-132482Y918D03*
X-127800Y-19400D03*
X-120700Y-12500D03*
X-115900Y-34600D03*
X-114100Y-51000D03*
X-102400Y-27900D03*
X-95400Y-2200D03*
X-88200Y-46200D03*
X-85700Y-78500D03*
X-81950Y-53600D03*
X-76300Y-60200D03*
X-74900Y-78500D03*
Y-73700D03*
X-75500Y-49100D03*
X-73900Y-26250D03*
X-64500Y-62600D03*
X-63600Y-47600D03*
X-58900Y-73700D03*
X-60300Y2200D03*
X-55800Y-60400D03*
X-55326Y-37026D03*
X-56200Y-11400D03*
X-47200Y-72300D03*
X-41839Y-44961D03*
X-41500Y-41000D03*
X-35950Y-63450D03*
X-23900Y-67200D03*
X-24400Y-62000D03*
X-19800Y-26950D03*
X-11300Y-26500D03*
X-4000Y-26400D03*
X3361Y-26900D03*
X18400D03*
X18300Y-20550D03*
X18900Y-76600D03*
X21139Y-42961D03*
X25500Y-52200D03*
X25600Y-47600D03*
X41900Y-26900D03*
X44800Y-73800D03*
G54D13*
X-130100Y26600D03*
X129200Y36400D03*
G54D14*
X-130100Y46285D03*
X129200Y-2970D03*
Y16715D03*
G54D15*
X-118800Y-87200D03*
X-108800D03*
X-98800D03*
X-88800D03*
X-65800Y-87100D03*
X-55800D03*
X-45800D03*
X61641Y-68268D03*
Y-58268D03*
Y-48268D03*
G54D16*
X-78800Y-87200D03*
X-35800Y-87100D03*
X-18404Y-2200D03*
Y7800D03*
Y57800D03*
Y77800D03*
X61641Y-38268D03*
G54D17*
X20406Y16596D03*
X28280Y-7026D03*
Y40218D03*
X76311Y-7026D03*
Y40218D03*
G54D18*
G01X-134200Y-12500D02*
X-120700D01*
G01X-132482Y918D02*
X-98518D01*
X-95400Y-2200D01*
G01X-88200Y-46200D02*
X-95200D01*
X-122000Y-19400D01*
X-127800D01*
G01X-123647Y-87200D02*
X-118800D01*
G01X-114100Y-82500D02*
X-118800Y-87200D01*
G01D02*
Y-82353D01*
G01Y-87200D02*
X-113953D01*
G01X-81950Y-53600D02*
X-96900D01*
X-115900Y-34600D01*
G01X-114100Y-51000D02*
Y-82500D01*
G01X-75500Y-49100D02*
Y-53900D01*
X-108800Y-87200D01*
G01X-73900Y-26250D02*
X-100750D01*
X-102400Y-27900D01*
G01X-98800Y-87200D02*
X-76300Y-64700D01*
Y-60200D01*
G01X-85700Y-78500D02*
X-74900D01*
G01D02*
X-74300D01*
X-72300Y-80500D01*
Y-80600D01*
G01X-58900Y-73700D02*
X-74900D01*
G01X-72300Y-80600D02*
X-65800Y-87100D01*
G01X-70647D02*
X-65800D01*
G01D02*
Y-82253D01*
G01Y-87100D02*
X-60953D01*
G01X-35950Y-63450D02*
X-63650D01*
X-64500Y-62600D01*
G01X25500Y-52200D02*
X-59000D01*
X-63600Y-47600D01*
G01X25600D02*
X-40687D01*
X-40729Y-47642D01*
X-57658D01*
X-60300Y-45000D01*
Y2200D01*
G01X-55800Y-60400D02*
X-26000D01*
X-24400Y-62000D01*
G01X-55326Y-37026D02*
X-21826D01*
X-11300Y-26500D01*
G01X-45800Y-87100D02*
X-52100Y-80800D01*
Y-72000D01*
X-47300Y-67200D01*
X-23900D01*
G01X44800Y-73800D02*
X-45700D01*
X-47200Y-72300D01*
G01X-41839Y-44961D02*
X-41583D01*
X-41423Y-44800D01*
X1521D01*
X3361Y-42961D01*
G01X-41500Y-41000D02*
X-6000D01*
X-4000Y-39000D01*
Y-26400D01*
G01X-19800Y-26950D02*
Y-22200D01*
X-17800Y-20200D01*
X17950D01*
X18300Y-20550D01*
G01X3361Y-42961D02*
Y-26900D01*
G01Y-42961D02*
X21139D01*
G01X49900Y-63500D02*
Y-74600D01*
X47900Y-76600D01*
X18900D01*
G01X41900Y-26900D02*
X18400D01*
G01X61641Y-38268D02*
Y-30941D01*
X51250Y-20550D01*
X18300D01*
G01X55200Y-58200D02*
X49900Y-63500D01*
G01X61641Y-58268D02*
X61573Y-58200D01*
X55200D01*
G01X56794Y-58268D02*
X61641D01*
G01Y-63114D02*
Y-58268D01*
G01D02*
Y-53421D01*
G01Y-58268D02*
X66488D01*
G54D19*
G01X-56200Y-11400D02*
X-12100D01*
X-7726Y-7026D01*
X28280D01*
M02*
