G04 ================== begin FILE IDENTIFICATION RECORD ==================*
G04 Layout Name:  E:/workDir/san1ch/board/sant1ch.brd*
G04 Film Name:    BOTTOM*
G04 File Format:  Gerber RS274X*
G04 File Origin:  Cadence Allegro 16.5-P002*
G04 Origin Date:  Tue Oct 31 02:18:48 2017*
G04 *
G04 Layer:  VIA CLASS/BOTTOM*
G04 Layer:  PIN/BOTTOM*
G04 Layer:  ETCH/BOTTOM*
G04 Layer:  BOARD GEOMETRY/OUTLINE*
G04 *
G04 Offset:    (0.000 0.000)*
G04 Mirror:    No*
G04 Mode:      Positive*
G04 Rotation:  0*
G04 FullContactRelief:  No*
G04 UndefLineWidth:     0.000*
G04 ================== end FILE IDENTIFICATION RECORD ====================*
%FSLAX35Y35*MOIN*%
%IR0*IPPOS*OFA0.00000B0.00000*MIA0B0*SFA1.00000B1.00000*%
%ADD12C,.023622*%
%ADD10O,.059055X.043307*%
%ADD14C,.07874*%
%ADD17C,.084646*%
%ADD11C,.019685*%
%ADD15C,.066929*%
%ADD13R,.07874X.07874*%
%ADD16R,.066929X.066929*%
%ADD18C,.02*%
%ADD19C,.04*%
%ADD20C,.08*%
%ADD22C,.082934*%
%ADD21C,.076934*%
G75*
%LPD*%
G75*
G36*
G01X-70553Y-92053D02*
X-70500Y-92000D01*
Y-82000D01*
X-90088D01*
G02X-90371Y-81317I0J400D01*
G01X-74500Y-65446D01*
Y-61029D01*
X-74483Y-60990D01*
G03X-76306Y-58219I-1817J790D01*
G02X-76590Y-57536I-1J400D01*
G01X-73700Y-54646D01*
Y-49929D01*
X-73683Y-49890D01*
G03X-77317I-1817J790D01*
G01X-77300Y-49929D01*
Y-53154D01*
X-106146Y-82000D01*
X-113659D01*
X-113700Y-82100D01*
Y-92000D01*
X-147800D01*
X-153900Y-85900D01*
Y-21600D01*
X-152365Y-20065D01*
X-152229Y-20154D01*
G03X-150602Y-20640I1627J2479D01*
G01X-149027D01*
G03X-146188Y-16816I0J2966D01*
G02X-145806Y-16300I383J116D01*
G01X-140240D01*
G02X-139857Y-16816I0J-400D01*
G03X-137019Y-20640I2838J-859D01*
G01X-135444D01*
G03X-132606Y-16816I0J2966D01*
G02X-132223Y-16300I383J116D01*
G01X-62100D01*
Y-45746D01*
X-61926Y-45920D01*
X-62196Y-46190D01*
X-62336Y-46074D01*
G03X-64326Y-49444I-1264J-1526D01*
G01X-64287Y-49459D01*
X-59746Y-54000D01*
X-26500D01*
Y-58600D01*
X-54971D01*
X-55010Y-58583D01*
G03X-57651Y-61107I-790J-1817D01*
G02X-58025Y-61649I-374J-143D01*
G01X-62762D01*
G03X-65226Y-64444I-1738J-951D01*
G01X-65187Y-64459D01*
X-64396Y-65250D01*
X-48861D01*
G02X-48578Y-65933I0J-400D01*
G01X-53900Y-71254D01*
Y-81546D01*
X-53787Y-81659D01*
G02X-53929Y-82000I-141J-141D01*
G01X-60100D01*
X-60400Y-82300D01*
X-60100Y-82600D01*
Y-92000D01*
X-60400Y-92300D01*
X-70451D01*
X-70553Y-92053D01*
G37*
G36*
G01X54700Y-63500D02*
Y-27512D01*
G02X55383Y-27229I400J0D01*
G01X59841Y-31687D01*
Y-34121D01*
X57494D01*
Y-42414D01*
X65788D01*
Y-34121D01*
X63441D01*
Y-30195D01*
X51996Y-18750D01*
X19129D01*
X19090Y-18734D01*
G03X19026Y-18707I-791J-1816D01*
G01X18987Y-18692D01*
X18695Y-18400D01*
X-18546D01*
X-21600Y-21454D01*
Y-24200D01*
X-36200D01*
Y-39200D01*
X-40671D01*
X-40710Y-39183D01*
G03X-42728Y-42554I-790J-1817D01*
G02X-42786Y-43220I-248J-314D01*
G03X-43780Y-45361I946J-1741D01*
G02X-44172Y-45842I-392J-81D01*
G01X-56913D01*
X-58500Y-44254D01*
Y-16300D01*
X76900D01*
X81100Y-20500D01*
Y-63500D01*
X54700D01*
G37*
%LPC*%
G75*
G36*
G01X-89029Y-48000D02*
X-95946D01*
X-122746Y-21200D01*
X-126971D01*
X-127010Y-21217D01*
G02Y-17583I-790J1817D01*
G01X-126971Y-17600D01*
X-121254D01*
X-94454Y-44400D01*
X-89029D01*
X-88990Y-44383D01*
G02Y-48017I790J-1817D01*
G01X-89029Y-48000D01*
G37*
G36*
G01X-114056Y-33874D02*
X-114041Y-33913D01*
X-96154Y-51800D01*
X-82779D01*
X-82741Y-51783D01*
G02Y-55417I790J-1817D01*
G01X-82779Y-55400D01*
X-97646D01*
X-116587Y-36459D01*
X-116626Y-36444D01*
G02X-114056Y-33874I726J1844D01*
G37*
G36*
G01X-59729Y-75500D02*
X-74071D01*
X-74110Y-75517D01*
G02Y-71883I-790J1817D01*
G01X-74071Y-71900D01*
X-59729D01*
X-59690Y-71883D01*
G02Y-75517I790J-1817D01*
G01X-59729Y-75500D01*
G37*
G54D22*
X61641Y-48268D03*
G54D21*
X-118800Y-87200D03*
X-65800Y-87100D03*
X61641Y-58268D03*
%LPD*%
G75*
G54D10*
X-149814Y-17675D03*
Y10475D03*
X-136232Y-17675D03*
Y10475D03*
G54D20*
G01X-18404Y57800D02*
X-26250D01*
X-26350Y57700D01*
X-81400D01*
X-112500Y26600D01*
X-130100D01*
G01X-18404Y77800D02*
X-97900D01*
X-98000Y77900D01*
X-98485D01*
X-130100Y46285D01*
G01X20406Y16596D02*
X120644D01*
X120763Y16715D01*
X129200D01*
G01Y-2970D02*
X120763D01*
X120733Y-3000D01*
X91900D01*
X87874Y-7026D01*
X76311D01*
G01X129200Y36400D02*
X92700D01*
X88882Y40218D01*
X76311D01*
G54D11*
X-141448Y-11474D03*
Y4274D03*
G54D12*
X-136706Y-12500D03*
X-133400Y1500D03*
X-127800Y-19400D03*
X-120700Y-12500D03*
X-115900Y-34600D03*
X-114100Y-51000D03*
X-102400Y-27900D03*
X-95400Y-2200D03*
X-88200Y-46200D03*
X-85700Y-78500D03*
X-81950Y-53600D03*
X-76300Y-60200D03*
X-74900Y-78500D03*
Y-73700D03*
X-75500Y-49100D03*
X-73900Y-26250D03*
X-64500Y-62600D03*
X-63600Y-47600D03*
X-58900Y-73700D03*
X-60300Y2200D03*
X-55800Y-60400D03*
X-55326Y-37026D03*
X-56200Y-11400D03*
X-41839Y-44961D03*
X-41500Y-41000D03*
X-39000Y-73800D03*
X-35950Y-63450D03*
X-23900Y-67200D03*
X-24400Y-62000D03*
X-19800Y-26950D03*
X-11300Y-26500D03*
X-4000Y-26400D03*
X3361Y-26900D03*
X18400D03*
X18300Y-20550D03*
X18900Y-76600D03*
X21139Y-42961D03*
X25500Y-52200D03*
X25600Y-47600D03*
X41900Y-26900D03*
X44800Y-73800D03*
G54D13*
X-130100Y26600D03*
X129200Y36400D03*
G54D14*
X-130100Y46285D03*
X129200Y-2970D03*
Y16715D03*
G54D15*
X-118800Y-87200D03*
X-108800D03*
X-98800D03*
X-88800D03*
X-65800Y-87100D03*
X-55800D03*
X-45800D03*
X61641Y-68268D03*
Y-58268D03*
Y-48268D03*
G54D16*
X-78800Y-87200D03*
X-35800Y-87100D03*
X-18404Y-2200D03*
Y7800D03*
Y57800D03*
Y77800D03*
X61641Y-38268D03*
G54D17*
X20406Y16596D03*
X28280Y-7026D03*
Y40218D03*
X76311Y-7026D03*
Y40218D03*
G54D18*
G01X-136706Y-12500D02*
X-120700D01*
G01X-95400Y-2200D02*
X-99100Y1500D01*
X-133400D01*
G01X-88200Y-46200D02*
X-95200D01*
X-122000Y-19400D01*
X-127800D01*
G01X-122847Y-87200D02*
X-118800D01*
G01Y-91247D02*
Y-87200D01*
G01D02*
X-114100Y-82500D01*
G01X-118800Y-87200D02*
Y-83153D01*
G01Y-87200D02*
X-114753D01*
G01X-81950Y-53600D02*
X-96900D01*
X-115900Y-34600D01*
G01X-114100Y-82500D02*
Y-51000D01*
G01X-75500Y-49100D02*
Y-53900D01*
X-108800Y-87200D01*
G01X-73900Y-26250D02*
X-100750D01*
X-102400Y-27900D01*
G01X-98800Y-87200D02*
X-76300Y-64700D01*
Y-60200D01*
G01X-85700Y-78500D02*
X-74900D01*
G01X-72300Y-80600D02*
Y-80500D01*
X-74300Y-78500D01*
X-74900D01*
G01X-58900Y-73700D02*
X-74900D01*
G01X-65800Y-87100D02*
X-72300Y-80600D01*
G01X-69847Y-87100D02*
X-65800D01*
G01Y-91147D02*
Y-87100D01*
G01D02*
Y-83053D01*
G01Y-87100D02*
X-61753D01*
G01X-35950Y-63450D02*
X-63650D01*
X-64500Y-62600D01*
G01X25500Y-52200D02*
X-59000D01*
X-63600Y-47600D01*
G01X25600D02*
X-40687D01*
X-40729Y-47642D01*
X-57658D01*
X-60300Y-45000D01*
Y2200D01*
G01X-55800Y-60400D02*
X-26000D01*
X-24400Y-62000D01*
G01X-55326Y-37026D02*
X-21826D01*
X-11300Y-26500D01*
G01X-45800Y-87100D02*
X-52100Y-80800D01*
Y-72000D01*
X-47300Y-67200D01*
X-23900D01*
G01X-41839Y-44961D02*
X-41583D01*
X-41423Y-44800D01*
X1521D01*
X3361Y-42961D01*
G01X-41500Y-41000D02*
X-6000D01*
X-4000Y-39000D01*
Y-26400D01*
G01X44800Y-73800D02*
X-39000D01*
G01X-19800Y-26950D02*
Y-22200D01*
X-17800Y-20200D01*
X17950D01*
X18300Y-20550D01*
G01X3361Y-42961D02*
Y-26900D01*
G01Y-42961D02*
X21139D01*
G01X18900Y-76600D02*
X47900D01*
X49900Y-74600D01*
Y-63500D01*
X55200Y-58200D01*
G01X41900Y-26900D02*
X18400D01*
G01X61641Y-38268D02*
Y-30941D01*
X51250Y-20550D01*
X18300D01*
G01X55200Y-58200D02*
X61573D01*
X61641Y-58268D01*
G01X57594D02*
X61641D01*
G01Y-62314D02*
Y-58268D01*
G01D02*
Y-54221D01*
G01Y-58268D02*
X65688D01*
G54D19*
G01X-56200Y-11400D02*
X-12100D01*
X-7726Y-7026D01*
X28280D01*
M02*
