G04 ================== begin FILE IDENTIFICATION RECORD ==================*
G04 Layout Name:  E:/workDir/san1ch/board/sant1ch.brd*
G04 Film Name:    smb*
G04 File Format:  Gerber RS274X*
G04 File Origin:  Cadence Allegro 16.5-P002*
G04 Origin Date:  Tue Oct 31 02:18:48 2017*
G04 *
G04 Layer:  VIA CLASS/SOLDERMASK_BOTTOM*
G04 Layer:  PIN/SOLDERMASK_BOTTOM*
G04 Layer:  PACKAGE GEOMETRY/SOLDERMASK_BOTTOM*
G04 Layer:  BOARD GEOMETRY/OUTLINE*
G04 Layer:  BOARD GEOMETRY/SOLDERMASK_BOTTOM*
G04 *
G04 Offset:    (0.000 0.000)*
G04 Mirror:    No*
G04 Mode:      Positive*
G04 Rotation:  0*
G04 FullContactRelief:  No*
G04 UndefLineWidth:     6.000*
G04 ================== end FILE IDENTIFICATION RECORD ====================*
%FSLAX35Y35*MOIN*%
%IR0*IPPOS*OFA0.00000B0.00000*MIA0B0*SFA1.00000B1.00000*%
%ADD11C,.023622*%
%ADD10O,.059055X.043307*%
%ADD14C,.070866*%
%ADD13C,.082677*%
%ADD16C,.088583*%
%ADD15R,.070866X.070866*%
%ADD12R,.082677X.082677*%
%ADD17C,.08*%
%ADD18C,.006*%
G75*
%LPD*%
G75*
G54D10*
X-149814Y-17675D03*
Y10475D03*
X-136232Y-17675D03*
Y10475D03*
G54D11*
X-141448Y-11474D03*
Y4274D03*
G54D12*
X-130100Y26600D03*
X129200Y36400D03*
G54D13*
X-130100Y46285D03*
X129200Y-2970D03*
Y16715D03*
G54D14*
X-118800Y-87200D03*
X-108800D03*
X-98800D03*
X-88800D03*
X-65800Y-87100D03*
X-55800D03*
X-45800D03*
X61641Y-68268D03*
Y-58268D03*
Y-48268D03*
G54D15*
X-78800Y-87200D03*
X-35800Y-87100D03*
X-18404Y-2200D03*
Y7800D03*
Y57800D03*
Y77800D03*
X61641Y-38268D03*
G54D16*
X20406Y16596D03*
X28280Y-7026D03*
Y40218D03*
X76311Y-7026D03*
Y40218D03*
G54D17*
G01X20300Y16500D02*
X129300D01*
G01X125300Y36600D02*
X92500D01*
X89000Y40100D01*
X76300D01*
X76500Y40300D01*
X88800D01*
X92800Y36300D01*
X129500D01*
G01X76400Y-7000D02*
X87900D01*
X92000Y-2900D01*
X129100D01*
G54D18*
G01X-155118Y85827D02*
Y-85827D01*
G03X-147244Y-93701I7874J0D01*
G01X147244D01*
G03X155118Y-85827I0J7874D01*
G01Y85827D01*
G03X147244Y93701I-7874J0D01*
G01X-147244D01*
G03X-155118Y85827I0J-7874D01*
G01X-141339Y-74016D02*
G03I0J-7874D01*
G01Y74016D02*
G03I0J7874D01*
G01X-143200Y41700D02*
X-127500D01*
X-100100Y69100D01*
Y69400D01*
X-88700Y58000D01*
Y57700D01*
X-114400Y32000D01*
X-143200D01*
Y41700D01*
G01X-7874Y-92913D02*
Y-80709D01*
X44882D01*
Y-92913D01*
X-7874D01*
G01X32500Y35500D02*
X8700D01*
X7400Y34200D01*
Y-800D01*
X8400Y-1800D01*
X32200D01*
X32300Y-1700D01*
Y11800D01*
X15000D01*
Y21600D01*
X32100D01*
X32500Y22000D01*
Y35500D01*
G01X90900Y1500D02*
Y12400D01*
X133200D01*
Y1500D01*
X90900D01*
G01X91200Y21000D02*
Y32200D01*
X133100D01*
Y21000D01*
X91200D01*
G01X141339Y-74016D02*
G03I0J-7874D01*
G01Y74016D02*
G03I0J7874D01*
M02*
