G04 ================== begin FILE IDENTIFICATION RECORD ==================*
G04 Layout Name:  E:/workDir/san1ch/board/sant1ch.brd*
G04 Film Name:    TOP*
G04 File Format:  Gerber RS274X*
G04 File Origin:  Cadence Allegro 16.5-P002*
G04 Origin Date:  Sun Aug 13 10:00:49 2017*
G04 *
G04 Layer:  VIA CLASS/TOP*
G04 Layer:  PIN/TOP*
G04 Layer:  ETCH/TOP*
G04 Layer:  BOARD GEOMETRY/OUTLINE*
G04 *
G04 Offset:    (0.000 0.000)*
G04 Mirror:    No*
G04 Mode:      Positive*
G04 Rotation:  0*
G04 FullContactRelief:  No*
G04 UndefLineWidth:     0.000*
G04 ================== end FILE IDENTIFICATION RECORD ====================*
%FSLAX35Y35*MOIN*%
%IR0*IPPOS*OFA0.00000B0.00000*MIA0B0*SFA1.00000B1.00000*%
%AMMACRO19*
4,1,40,.009843,.027559,
-.009843,.027559,
-.010527,.027499,
-.01119,.027322,
-.011812,.027031,
-.012374,.026638,
-.012859,.026152,
-.013253,.02559,
-.013543,.024968,
-.01372,.024305,
-.01378,.023622,
-.01378,-.023622,
-.01372,-.024306,
-.013543,-.024969,
-.013252,-.025591,
-.012859,-.026153,
-.012373,-.026638,
-.011811,-.027032,
-.011189,-.027322,
-.010526,-.027499,
-.009843,-.027559,
.009843,-.027559,
.010527,-.027499,
.01119,-.027322,
.011812,-.027031,
.012374,-.026638,
.012859,-.026152,
.013253,-.02559,
.013543,-.024968,
.01372,-.024305,
.01378,-.023622,
.01378,.023622,
.01372,.024306,
.013543,.024969,
.013252,.025591,
.012859,.026153,
.012373,.026638,
.011811,.027032,
.011189,.027322,
.010526,.027499,
.009843,.027559,
0.0*
%
%ADD19MACRO19*%
%AMMACRO24*
4,1,40,.008465,.037402,
-.008465,.037402,
-.009149,.037342,
-.009812,.037164,
-.010434,.036874,
-.010996,.036481,
-.011481,.035995,
-.011875,.035433,
-.012165,.034811,
-.012342,.034148,
-.012402,.033465,
-.012402,-.033465,
-.012342,-.034149,
-.012164,-.034812,
-.011874,-.035434,
-.011481,-.035996,
-.010995,-.036481,
-.010433,-.036875,
-.009811,-.037165,
-.009148,-.037342,
-.008465,-.037402,
.008465,-.037402,
.009149,-.037342,
.009812,-.037164,
.010434,-.036874,
.010996,-.036481,
.011481,-.035995,
.011875,-.035433,
.012165,-.034811,
.012342,-.034148,
.012402,-.033465,
.012402,.033465,
.012342,.034149,
.012164,.034812,
.011874,.035434,
.011481,.035996,
.010995,.036481,
.010433,.036875,
.009811,.037165,
.009148,.037342,
.008465,.037402,
0.0*
%
%ADD24MACRO24*%
%AMMACRO25*
4,1,40,.034055,.037402,
-.034055,.037402,
-.034739,.037342,
-.035402,.037165,
-.036024,.036874,
-.036586,.036481,
-.037071,.035996,
-.037465,.035433,
-.037755,.034811,
-.037932,.034148,
-.037992,.033465,
-.037992,-.033465,
-.037932,-.034149,
-.037755,-.034812,
-.037464,-.035434,
-.037071,-.035996,
-.036586,-.036481,
-.036023,-.036875,
-.035401,-.037165,
-.034738,-.037342,
-.034055,-.037402,
.034055,-.037402,
.034739,-.037342,
.035402,-.037165,
.036024,-.036874,
.036586,-.036481,
.037071,-.035996,
.037465,-.035433,
.037755,-.034811,
.037932,-.034148,
.037992,-.033465,
.037992,.033465,
.037932,.034149,
.037755,.034812,
.037464,.035434,
.037071,.035996,
.036586,.036481,
.036023,.036875,
.035401,.037165,
.034738,.037342,
.034055,.037402,
0.0*
%
%ADD25MACRO25*%
%ADD14C,.023622*%
%ADD20R,.037402X.03937*%
%ADD11O,.059055X.043307*%
%ADD29O,.025591X.049213*%
%ADD22R,.03937X.037402*%
%ADD16C,.07874*%
%ADD30C,.084646*%
%ADD12C,.019685*%
%ADD13R,.055118X.015748*%
%AMMACRO18*
4,1,40,-.009843,-.027559,
.009843,-.027559,
.010527,-.027499,
.01119,-.027322,
.011812,-.027031,
.012374,-.026638,
.012859,-.026152,
.013253,-.02559,
.013543,-.024968,
.01372,-.024305,
.01378,-.023622,
.01378,.023622,
.01372,.024306,
.013543,.024969,
.013252,.025591,
.012859,.026153,
.012373,.026638,
.011811,.027032,
.011189,.027322,
.010526,.027499,
.009843,.027559,
-.009843,.027559,
-.010527,.027499,
-.01119,.027322,
-.011812,.027031,
-.012374,.026638,
-.012859,.026152,
-.013253,.02559,
-.013543,.024968,
-.01372,.024305,
-.01378,.023622,
-.01378,-.023622,
-.01372,-.024306,
-.013543,-.024969,
-.013252,-.025591,
-.012859,-.026153,
-.012373,-.026638,
-.011811,-.027032,
-.011189,-.027322,
-.010526,-.027499,
-.009843,-.027559,
0.0*
%
%ADD18MACRO18*%
%ADD17C,.066929*%
%ADD26R,.059055X.031496*%
%ADD15R,.07874X.07874*%
%ADD27R,.031496X.059055*%
%ADD23O,.062992X.015748*%
%ADD10R,.059055X.07874*%
%ADD28R,.045276X.070866*%
%ADD21R,.066929X.066929*%
%ADD31C,.02*%
%ADD32C,.04*%
%ADD33R,.091058X.110744*%
%ADD34R,.085058X.104744*%
%ADD35C,.092934*%
G75*
%LPD*%
G75*
G36*
G01X-146800Y-92000D02*
X-153600Y-85200D01*
Y-65866D01*
X-145205D01*
Y-55392D01*
X-153600D01*
Y-32308D01*
X-144905D01*
Y-21234D01*
X-144940D01*
G02X-145256Y-20588I0J400D01*
G03X-144527Y-17574I-2971J2313D01*
G02X-144134Y-17100I393J74D01*
G01X-140312D01*
G02X-139919Y-17574I0J-400D01*
G03X-136295Y-22040I3700J-700D01*
G01Y-32308D01*
X-127189D01*
Y-22118D01*
X-127043Y-22076D01*
G03X-125569Y-17739I-757J2676D01*
G02X-125248Y-17100I321J239D01*
G01X-96851D01*
Y-25195D01*
X-88346Y-33700D01*
X-72546D01*
X-71600Y-34646D01*
Y-40014D01*
X-72361D01*
G03X-74376Y-43681I0J-2388D01*
G03Y-46240I2016J-1280D01*
G03X-74518Y-46498I2016J-1280D01*
G03X-75749Y-46330I-982J-2602D01*
G01X-75842Y-46338D01*
X-77581Y-44600D01*
X-78380D01*
Y-42831D01*
X-80050D01*
Y-42369D01*
X-78380D01*
Y-35231D01*
X-85321D01*
Y-35531D01*
X-91320D01*
Y-42069D01*
X-85321D01*
Y-42369D01*
X-83651D01*
Y-42831D01*
X-91620D01*
Y-50031D01*
X-91720D01*
Y-57169D01*
X-91520D01*
Y-64669D01*
X-89850D01*
Y-67200D01*
X-128854D01*
X-129205Y-66849D01*
G02X-128922Y-66166I283J283D01*
G01X-127189D01*
Y-55092D01*
X-136295D01*
Y-66166D01*
X-133542D01*
Y-67604D01*
X-130346Y-70800D01*
X-76868D01*
G02X-76620Y-71514I0J-400D01*
G03X-77671Y-73459I1720J-2186D01*
G01X-77677Y-73531D01*
X-86814Y-82668D01*
X-86936Y-82618D01*
G03X-93426Y-85448I-1863J-4582D01*
G02X-94174I-374J142D01*
G03X-103426I-4626J-1752D01*
G02X-104174I-374J142D01*
G03X-111610Y-91271I-4626J-1752D01*
G02X-111838Y-92000I-227J-329D01*
G01X-116328D01*
G02X-116524Y-91251I0J400D01*
G03X-121076I-2276J4051D01*
G02X-121272Y-92000I-196J-349D01*
G01X-146800D01*
G37*
G36*
G01X-51174Y-85348D02*
G03X-54000Y-82492I-4626J-1752D01*
G01Y-62520D01*
G03X-56587Y-57732I-1800J2120D01*
G02X-57100Y-57349I-113J384D01*
G01Y-49946D01*
X-56354Y-49200D01*
X-52679D01*
X-52559Y-49320D01*
X-52290D01*
G02X-51894Y-49771I0J-400D01*
G03X-51542Y-51358I2368J-307D01*
G03Y-53917I2016J-1280D01*
G03Y-56476I2016J-1280D01*
G03Y-59035I2016J-1279D01*
G03Y-61595I2016J-1280D01*
G03Y-64154I2016J-1280D01*
G03X-49526Y-67821I2016J-1280D01*
G01X-49000D01*
Y-70180D01*
G03X-45400I1800J-2120D01*
G01Y-68502D01*
X-45364Y-68466D01*
Y-67821D01*
X-44802D01*
G03X-42786Y-64154I0J2388D01*
G03Y-61595I-2016J1280D01*
G03Y-59035I-2016J1280D01*
G03Y-56476I-2016J1280D01*
G03Y-53917I-2016J1280D01*
G03Y-51358I-2016J1280D01*
G03Y-48799I-2016J1280D01*
G03X-42442Y-47884I-2016J1280D01*
G02X-42217Y-47716I198J-30D01*
G03X-39616Y-43290I378J2756D01*
G02X-39593Y-43024I160J120D01*
G03X-44135Y-40109I-1907J2024D01*
G03X-44802Y-40014I-667J-2293D01*
G01X-49526D01*
G03X-51542Y-43681I0J-2388D01*
G03X-51905Y-45166I2016J-1280D01*
G02X-52303Y-45600I-399J-34D01*
G01X-57846D01*
X-60136Y-47890D01*
G02X-60819Y-47606I-283J283D01*
G03X-64704Y-45047I-2781J6D01*
G02X-65261Y-44720I-159J367D01*
G03X-65620Y-43681I-2375J-240D01*
G03X-67636Y-40014I-2016J1280D01*
G01X-68000D01*
Y-33154D01*
X-71054Y-30100D01*
X-86854D01*
X-93250Y-23704D01*
Y-17100D01*
X-77469D01*
Y-23421D01*
X-77169D01*
Y-29420D01*
X-70631D01*
Y-23421D01*
X-70331D01*
Y-21851D01*
X-69669D01*
Y-23521D01*
X-69369D01*
Y-29520D01*
X-62831D01*
Y-23521D01*
X-62531D01*
Y-21851D01*
X-59654D01*
X-59487Y-21684D01*
G02X-59146Y-21825I141J-141D01*
G01Y-22043D01*
G03X-57152Y-24037I1994J0D01*
G01X-55459D01*
G03X-53911Y-23299I0J1994D01*
G02X-53200Y-23551I311J-252D01*
G01Y-25364D01*
X-53805D01*
G03X-55799Y-27357I0J-1994D01*
G01Y-34050D01*
G03X-53805Y-36044I1994J0D01*
G01X-46994D01*
G03X-45001Y-34050I0J1994D01*
G01Y-32504D01*
X-36964D01*
G02X-36682Y-33187I0J-400D01*
G01X-37750Y-34255D01*
Y-61329D01*
G03Y-65570I1800J-2120D01*
G01Y-82153D01*
X-40747D01*
Y-84467D01*
G02X-41495Y-84664I-400J0D01*
G03X-50426Y-85348I-4305J-2436D01*
G02X-51174I-374J142D01*
G37*
G36*
G01X-80342Y-82253D02*
G02X-80625Y-81570I0J400D01*
G01X-75477Y-76423D01*
X-75375Y-76440D01*
G03X-74444Y-70956I475J2741D01*
G02X-74661Y-70279I66J395D01*
G01X-72202Y-67821D01*
X-67636D01*
G03X-66835Y-67682I0J2388D01*
G02X-66300Y-68059I134J-377D01*
G01Y-72154D01*
X-76399Y-82253D01*
X-80342D01*
G37*
G36*
G01X-73853Y-92000D02*
Y-84799D01*
X-62700Y-73646D01*
Y-64720D01*
G03X-65084Y-59881I-1800J2120D01*
G02X-65320Y-59734I-42J196D01*
G03X-65813Y-58773I-2316J-581D01*
G03Y-56739I-1823J1017D01*
G03X-65620Y-53917I-1823J1542D01*
G03Y-51358I-2016J1280D01*
G03X-65278Y-50449I-2016J1280D01*
G02X-64721Y-50145I395J-62D01*
G03X-61414Y-49320I1121J2545D01*
G02X-60700Y-49568I314J-247D01*
G01Y-71580D01*
G03X-58113Y-76368I1800J-2120D01*
G02X-57600Y-76751I113J-384D01*
G01Y-82492D01*
G03X-58471Y-91263I1800J-4607D01*
G02X-58687Y-92000I-216J-337D01*
G01X-63516D01*
G02X-63696Y-91243I0J400D01*
G03X-67904I-2104J4143D01*
G02X-68084Y-92000I-181J-357D01*
G01X-73853D01*
G37*
G36*
G01X-45001Y-28904D02*
Y-27357D01*
G03X-46994Y-25364I-1994J0D01*
G01X-47600D01*
Y-22441D01*
X-47596Y-22422D01*
G03X-47560Y-22043I-1957J380D01*
G01Y-17100D01*
X-47035D01*
Y-22043D01*
G03X-45341Y-23737I1694J0D01*
G01X-43648D01*
G03X-41954Y-22043I0J1694D01*
G01Y-17100D01*
X-31069D01*
Y-23479D01*
X-31369D01*
Y-27874D01*
X-32398Y-28904D01*
X-45001D01*
G37*
G36*
G01X49400Y-63800D02*
Y-55146D01*
X54546Y-50000D01*
X55981D01*
X56049Y-50068D01*
X57033D01*
G03X64077Y-43962I4608J1800D01*
G02X64274Y-43214I197J348D01*
G01X66588D01*
Y-33321D01*
X56694D01*
Y-43214D01*
X59008D01*
G02X59205Y-43962I0J-400D01*
G03X57060Y-46400I2436J-4305D01*
G01X53054D01*
X50083Y-49371D01*
G02X49400Y-49088I-283J283D01*
G01Y-21800D01*
X28869D01*
Y-17100D01*
X60800D01*
X78600Y-34900D01*
Y-63800D01*
X63764D01*
G03X59517I-2124J-4468D01*
G01X49400D01*
G37*
%LPC*%
G75*
G36*
G01X-114100Y-30883D02*
Y-32480D01*
G02X-118308Y-33208I-1800J-2120D01*
G03X-118654Y-32608I-346J200D01*
G01X-125011D01*
Y-21534D01*
X-115905D01*
Y-29078D01*
X-114100Y-30883D01*
G37*
G54D33*
X-120458Y-60929D03*
X-102742D03*
G54D34*
Y-27071D03*
G54D35*
X61641Y-58268D03*
%LPD*%
G75*
G54D10*
X-149458Y-60629D03*
Y-26771D03*
X-131742Y-60629D03*
Y-26771D03*
X-120458Y-60929D03*
Y-27071D03*
X-102742Y-60929D03*
Y-27071D03*
G54D11*
X-149014Y-18275D03*
Y9875D03*
X-135432Y-18275D03*
Y9875D03*
G54D20*
X-101350Y-12400D03*
X-101550Y-2900D03*
X-101150Y7300D03*
X-95050Y-12400D03*
X-95250Y-2900D03*
X-94850Y7300D03*
X-88050Y-61100D03*
X-88250Y-53600D03*
X-88150Y-46400D03*
Y-38800D03*
X-81750Y-61100D03*
X-81950Y-53600D03*
X-81850Y-46400D03*
Y-38800D03*
G54D21*
X-78800Y-87200D03*
X-35800Y-87100D03*
X-18404Y-2200D03*
Y7800D03*
Y57800D03*
Y77800D03*
X61641Y-38268D03*
G54D12*
X-140648Y-12074D03*
Y3674D03*
G54D30*
X20406Y16596D03*
X28280Y-7026D03*
Y40218D03*
X76311Y-7026D03*
Y40218D03*
G54D31*
G01X-123647Y-87200D02*
X-123847Y-87000D01*
X-145500D01*
X-149458Y-83042D01*
G01D02*
Y-60629D01*
G01D02*
Y-55192D01*
G01Y-60629D02*
X-145005D01*
G01X-137400Y-9318D02*
X-137382D01*
X-134200Y-12500D01*
G01X-137400Y918D02*
X-132482D01*
G01X-88400Y-69000D02*
X-129600D01*
X-131742Y-66858D01*
Y-60629D01*
G01X-119835Y7300D02*
X-125800D01*
X-127800Y5300D01*
Y-19400D01*
G01X-118800Y-87200D02*
X-123647D01*
G01X-115900Y-34600D02*
Y-31629D01*
X-120458Y-27071D01*
G01X-107800Y-27100D02*
X-120435Y-14465D01*
Y-12400D01*
G01X-110100Y-78500D02*
X-118800Y-87200D01*
G01D02*
Y-82353D01*
G01Y-87200D02*
X-113953D01*
G01X2618Y40218D02*
X2036Y40800D01*
X-12100D01*
X-39400Y13500D01*
X-113900D01*
X-116957Y10443D01*
Y1556D01*
X-120035Y-1522D01*
Y-2900D01*
G01X-102400Y-39300D02*
X-114100Y-51000D01*
G01X-112365Y-12400D02*
X-101350D01*
G01X-85700Y-78500D02*
X-110100D01*
G01X-111965Y-2900D02*
X-101550D01*
G01X-111765Y7300D02*
X-101150D01*
G01X-102742Y-27071D02*
X-102771Y-27100D01*
X-107800D01*
G01X-107195Y-27071D02*
X-102742D01*
G01X-102400Y-27900D02*
Y-39300D01*
G01X-102742Y-27071D02*
Y-28055D01*
X-91997Y-38800D01*
G01X-102742Y-27071D02*
Y-21634D01*
G01Y-27071D02*
X-98289D01*
G01X-69998Y-42402D02*
X-69800Y-42203D01*
Y-33900D01*
X-71800Y-31900D01*
X-87600D01*
X-95050Y-24450D01*
Y-12400D01*
G01X-95250Y-2900D02*
X-75900D01*
X-73900Y-4900D01*
Y-19950D01*
G01X-94850Y7300D02*
X-65400D01*
X-60300Y2200D01*
G01X-91997Y-38800D02*
X-88150D01*
G01X-74900Y-73700D02*
X-75100Y-73500D01*
X-88800Y-87200D01*
G01X-69998Y-65433D02*
X-72361D01*
X-75928Y-69000D01*
X-88400D01*
G01X-88050Y-61100D02*
Y-68650D01*
X-88400Y-69000D01*
G01X-88250Y-53600D02*
Y-46500D01*
X-88150Y-46400D01*
G01X-88250Y-53600D02*
Y-54601D01*
X-81750Y-61100D01*
G01X-88150Y-42269D02*
Y-38800D01*
G01D02*
Y-35331D01*
G01X-69998Y-62874D02*
X-74648D01*
X-74674Y-62900D01*
X-79300D01*
X-81100Y-61100D01*
X-81750D01*
G01X-81950Y-53600D02*
X-77300D01*
X-75703Y-55197D01*
X-69998D01*
G01X-81850Y-46400D02*
Y-38800D01*
G01X-75627Y-49100D02*
X-78327Y-46400D01*
X-81850D01*
G01X-64500Y-62600D02*
Y-72900D01*
X-78800Y-87200D01*
G01X-76300Y-60200D02*
X-71091D01*
X-71035Y-60256D01*
X-70058D01*
X-69998Y-60315D01*
G01X-75627Y-49100D02*
X-74648Y-50079D01*
X-69998D01*
G01X-75500Y-49100D02*
X-75627D01*
G01X-73900Y-26250D02*
X-69668D01*
G01X-73900Y-19950D02*
X-69668D01*
X-69568Y-20050D01*
X-66100D01*
G01X-70647Y-87100D02*
X-65800D01*
G01X-69998Y-62874D02*
X-69940Y-62816D01*
X-66902D01*
X-66686Y-62600D01*
X-64500D01*
G01X-63600Y-47600D02*
X-68941D01*
X-68962Y-47579D01*
X-69939D01*
X-69998Y-47520D01*
G01Y-57756D02*
X-62344D01*
G01X-69668Y-26250D02*
X-69568Y-26350D01*
G01D02*
X-66100D01*
G01X-61400Y-82700D02*
X-65800Y-87100D01*
G01X-55326Y-37026D02*
X-66002Y-26350D01*
X-66100D01*
G01Y-20050D02*
X-60400D01*
X-59046Y-18696D01*
X-56306D01*
G01X-65800Y-87100D02*
Y-82253D01*
G01Y-87100D02*
X-60953D01*
G01X-62344Y-57756D02*
X-61400Y-58700D01*
Y-72408D01*
X-61581Y-72589D01*
Y-74811D01*
X-61400Y-74992D01*
Y-82700D01*
G01X-58900Y-73700D02*
Y-49200D01*
X-57100Y-47400D01*
X-51933D01*
X-51813Y-47520D01*
X-47164D01*
G01X-55800Y-87100D02*
Y-60400D01*
G01X-50400Y-30704D02*
X-31653D01*
G01X-47200Y-72300D02*
Y-67757D01*
X-47164Y-67720D01*
Y-65433D01*
G01Y-44961D02*
X-41839D01*
G01X-47164Y-42402D02*
X-42902D01*
X-41500Y-41000D01*
G01X-44494Y-18696D02*
X-33223D01*
G01X-35950Y-63450D02*
Y-82104D01*
X-35800Y-82254D01*
Y-87100D01*
G01X-35950Y-63450D02*
Y-35001D01*
X-31653Y-30704D01*
G01X-31100Y-63450D02*
X-35950D01*
G01X-33223Y-18696D02*
X-31268Y-20650D01*
G01X-31100Y-77750D02*
X-26450D01*
X-25900Y-77200D01*
X-17500D01*
G01X-31100Y-71450D02*
Y-63450D01*
G01X-17500Y-72200D02*
X-26882D01*
X-27631Y-71450D01*
X-31100D01*
G01X-17500Y-57200D02*
X-21953D01*
X-22002Y-57150D01*
X-31100D01*
G01X-31653Y-30704D02*
X-27898Y-26950D01*
X-27800D01*
G01X-31268Y-20650D02*
X-27800D01*
G01Y-26950D02*
X-19800D01*
G01X-27800Y-20650D02*
X-19800D01*
G01X-24400Y-62000D02*
X-17700D01*
X-17500Y-62200D01*
G01Y-67200D02*
X-23900D01*
G01X-18404Y-2200D02*
Y-15884D01*
X-19800Y-17280D01*
Y-20650D01*
G01X-17500Y-57200D02*
X-15575Y-55275D01*
X-13926D01*
X-13047Y-54396D01*
Y-36098D01*
X-11900Y-34951D01*
Y-26850D01*
G01X-19800Y-20650D02*
X-18099D01*
X-11900Y-26850D01*
G01X140Y-2129D02*
Y-948D01*
X-3300Y2492D01*
X-13712D01*
X-18404Y-2200D01*
G01X11000Y-68700D02*
X-500Y-57200D01*
X-17500D01*
G01X-11900Y-20550D02*
X-4000D01*
G01D02*
Y-6650D01*
X-7340Y-3310D01*
Y-2129D01*
G01X3400Y-20550D02*
X11100D01*
G01X11000Y-38700D02*
Y-68700D01*
G01D02*
X18900Y-76600D01*
G01X11000Y-38700D02*
Y-34247D01*
X11100Y-34147D01*
Y-26850D01*
G01Y-20550D02*
X18300D01*
G01X21139Y-42961D02*
Y-38839D01*
X21000Y-38700D01*
G01X34500Y-52200D02*
X25500D01*
G01X25600Y-47600D02*
X29647D01*
X30047Y-47200D01*
X34500D01*
G01Y-42200D02*
Y-29700D01*
X31650Y-26850D01*
X25600D01*
G01Y-20550D02*
X61350D01*
G01X34500Y-67200D02*
X39900D01*
X41900Y-65200D01*
Y-26900D01*
G01X61641Y-48268D02*
X56794D01*
X56727Y-48200D01*
X53800D01*
X44800Y-57200D01*
Y-73800D01*
G01X56794Y-58268D02*
X61641D01*
G01Y-63114D02*
Y-58268D01*
G01X69532D02*
X61641D01*
G01D02*
Y-53421D01*
G01X61350Y-20550D02*
X75100Y-34300D01*
Y-52700D01*
X69532Y-58268D01*
G54D13*
X-137400Y-9318D03*
Y-6759D03*
Y-4200D03*
Y-1641D03*
Y918D03*
G54D22*
X-73900Y-26250D03*
Y-19950D03*
X-66100Y-26350D03*
Y-20050D03*
X-31100Y-77750D03*
Y-71450D03*
Y-63450D03*
Y-57150D03*
X-27800Y-26950D03*
Y-20650D03*
X-19800Y-26950D03*
Y-20650D03*
X-11900Y-26850D03*
Y-20550D03*
X-4000Y-26850D03*
Y-20550D03*
X3400Y-26850D03*
Y-20550D03*
X11100Y-26850D03*
Y-20550D03*
X18300Y-26850D03*
Y-20550D03*
X25600Y-26850D03*
Y-20550D03*
G54D32*
G01X-56306Y-18696D02*
Y-12456D01*
X-56200Y-12350D01*
Y-11400D01*
G01D02*
Y-5300D01*
X-43100Y7800D01*
X-18404D01*
G01X-50400Y-18696D02*
Y-30704D01*
G01X-9406Y17000D02*
X-18208D01*
X-18404Y16804D01*
Y7800D01*
G01X2406Y17000D02*
Y12735D01*
X-3600Y6729D01*
G01X2618Y40218D02*
X2406Y40006D01*
Y17000D01*
G01X28280Y40218D02*
X2618D01*
G54D23*
X-69998Y-65433D03*
Y-62874D03*
Y-60315D03*
Y-57756D03*
Y-55197D03*
Y-52638D03*
Y-50079D03*
Y-47520D03*
Y-44961D03*
Y-42402D03*
X-47164Y-65433D03*
Y-62874D03*
Y-60315D03*
Y-57756D03*
Y-55197D03*
Y-52638D03*
Y-50079D03*
Y-47520D03*
Y-44961D03*
Y-42402D03*
G54D14*
X-134200Y-12500D03*
X-132482Y918D03*
X-127800Y-19400D03*
X-120700Y-12500D03*
X-115900Y-34600D03*
X-114100Y-51000D03*
X-102400Y-27900D03*
X-95400Y-2200D03*
X-88200Y-46200D03*
X-85700Y-78500D03*
X-81950Y-53600D03*
X-76300Y-60200D03*
X-74900Y-78500D03*
Y-73700D03*
X-75500Y-49100D03*
X-73900Y-26250D03*
X-64500Y-62600D03*
X-63600Y-47600D03*
X-58900Y-73700D03*
X-60300Y2200D03*
X-55800Y-60400D03*
X-55326Y-37026D03*
X-56200Y-11400D03*
X-47200Y-72300D03*
X-41839Y-44961D03*
X-41500Y-41000D03*
X-35950Y-63450D03*
X-23900Y-67200D03*
X-24400Y-62000D03*
X-19800Y-26950D03*
X-11300Y-26500D03*
X-4000Y-26400D03*
X3361Y-26900D03*
X18400D03*
X18300Y-20550D03*
X18900Y-76600D03*
X21139Y-42961D03*
X25500Y-52200D03*
X25600Y-47600D03*
X41900Y-26900D03*
X44800Y-73800D03*
G54D15*
X-130100Y26600D03*
X129200Y36400D03*
G54D24*
X-56306Y-18696D03*
X-50400D03*
X-44494D03*
G54D16*
X-130100Y46285D03*
X129200Y-2970D03*
Y16715D03*
G54D25*
X-50400Y-30704D03*
G54D26*
X-17500Y-77200D03*
Y-72200D03*
Y-67200D03*
Y-62200D03*
Y-57200D03*
Y-52200D03*
Y-47200D03*
Y-42200D03*
X34500Y-77200D03*
Y-72200D03*
Y-67200D03*
Y-62200D03*
Y-57200D03*
Y-52200D03*
Y-47200D03*
Y-42200D03*
G54D17*
X-118800Y-87200D03*
X-108800D03*
X-98800D03*
X-88800D03*
X-65800Y-87100D03*
X-55800D03*
X-45800D03*
X61641Y-68268D03*
Y-58268D03*
Y-48268D03*
G54D27*
X-9000Y-38700D03*
X-4000D03*
X1000D03*
X6000D03*
X11000D03*
X16000D03*
X21000D03*
X26000D03*
G54D18*
X-120435Y-12400D03*
X-120035Y-2900D03*
X-112365Y-12400D03*
X-111965Y-2900D03*
G54D28*
X-9406Y17000D03*
X2406D03*
G54D19*
X-119835Y7300D03*
X-111765D03*
G54D29*
X-7340Y-2129D03*
X-3600Y6729D03*
X140Y-2129D03*
M02*
